<?xml version="1.0" standalone="no"?>
<!DOCTYPE svg PUBLIC "-//W3C//DTD SVG 20010904//EN"
 "http://www.w3.org/TR/2001/REC-SVG-20010904/DTD/svg10.dtd">
<svg version="1.0" xmlns="http://www.w3.org/2000/svg"
 width="250.000000pt" height="250.000000pt" viewBox="0 0 250.000000 250.000000"
 preserveAspectRatio="xMidYMid meet">

<g transform="translate(0.000000,250.000000) scale(0.100000,-0.100000)"
fill="#000000" stroke="none">
<path d="M0 1250 l0 -1250 1250 0 1250 0 0 1250 0 1250 -1250 0 -1250 0 0
-1250z m1508 230 c29 -28 50 -55 47 -59 -3 -5 -23 -12 -45 -16 -22 -4 -40 -10
-40 -13 0 -3 14 -21 31 -38 l32 -33 40 21 c61 31 153 23 204 -18 76 -60 102
-157 64 -239 -36 -78 -95 -115 -182 -115 -127 0 -219 117 -189 241 7 27 15 49
19 49 4 0 36 -29 71 -65 43 -44 68 -61 74 -55 7 7 -27 48 -104 125 l-115 115
-73 -19 c-41 -11 -77 -22 -80 -25 -3 -4 18 -31 48 -61 38 -38 49 -56 39 -59
-8 -3 -75 -21 -149 -41 -74 -20 -142 -38 -152 -41 -9 -2 -19 -17 -23 -32 -18
-74 -99 -132 -184 -132 -87 0 -146 37 -182 115 -38 82 -12 179 64 239 68 54
204 45 256 -17 13 -16 -9 -25 -142 -58 -27 -6 -46 -16 -44 -23 6 -14 -4 -16
170 30 l147 38 -57 58 c-32 32 -55 58 -53 59 3 0 100 27 215 59 116 32 217 58
225 59 8 0 39 -22 68 -49z"/>
</g>
</svg>
