<?xml version="1.0" standalone="no"?>
<!DOCTYPE svg PUBLIC "-//W3C//DTD SVG 20010904//EN"
 "http://www.w3.org/TR/2001/REC-SVG-20010904/DTD/svg10.dtd">
<svg version="1.0" xmlns="http://www.w3.org/2000/svg"
 width="500.000000pt" height="500.000000pt" viewBox="0 0 500.000000 500.000000"
 preserveAspectRatio="xMidYMid meet">

<g transform="translate(0.000000,500.000000) scale(0.100000,-0.100000)"
fill="#000000" stroke="none">
<path d="M518 4088 c106 -134 322 -421 322 -429 0 -12 -577 -2652 -586 -2681
-5 -17 44 -18 941 -18 748 0 946 3 949 13 3 6 7 209 10 450 l5 437 -298 0
-299 0 -15 -67 c-8 -38 -23 -105 -33 -150 l-17 -83 -164 0 c-124 0 -163 3
-163 13 0 6 32 162 72 345 l72 332 162 0 162 0 266 197 266 197 0 103 0 103
-360 0 c-281 0 -360 3 -360 13 0 6 31 152 68 322 l69 310 167 3 167 2 -6 -22
c-11 -47 -55 -258 -55 -263 0 -3 69 -5 153 -5 l154 0 6 188 c4 103 7 303 7
445 l0 257 -836 0 c-668 0 -834 -3 -826 -12z"/>
<path d="M2300 4058 c0 -18 -7 -591 -15 -1273 -8 -682 -15 -1376 -15 -1542 l0
-303 653 0 653 0 671 1573 671 1572 -340 3 c-187 1 -490 1 -674 0 l-334 -3
155 -204 c85 -113 155 -208 155 -213 0 -10 -758 -1854 -776 -1888 -12 -23 -13
-20 -14 40 0 73 56 1995 64 2163 l5 107 -430 0 -429 0 0 -32z"/>
</g>
</svg>
