<svg xmlns="http://www.w3.org/2000/svg" width="512" height="512" viewBox="0 0 512 512" version="1.1"><path d="" stroke="none" fill="#080404" fill-rule="evenodd"/><path d="M 170.500 1.602 C 120.386 12.718, 86 54.795, 86 105 C 86 163.062, 132.938 210, 191 210 C 218.545 210, 243.347 200.083, 263.263 181.107 C 278.317 166.763, 287.723 150.903, 293.239 130.567 C 295.089 123.745, 295.432 119.799, 295.463 105 C 295.495 89.736, 295.204 86.414, 293.181 79 C 282.904 41.322, 254.950 13.232, 217.500 2.949 C 206.793 0.009, 181.014 -0.730, 170.500 1.602 M 356.500 237.139 C 348.936 241.428, 347.271 245.178, 345.293 262.393 L 343.639 276.782 338.413 278.948 C 335.539 280.139, 329.464 283.563, 324.914 286.557 C 320.363 289.551, 316.111 292, 315.464 292 C 314.818 292, 308.428 289.525, 301.266 286.500 C 287.656 280.752, 284.054 280.093, 278.718 282.377 C 273.858 284.456, 271.145 288.030, 261.126 305.554 C 250.661 323.856, 249.433 327.180, 250.992 332.969 C 252.415 338.253, 254.542 340.496, 266.916 349.753 L 277.332 357.546 277.416 374.140 L 277.500 390.735 266.238 399.020 C 254.551 407.616, 251.637 410.972, 250.492 417.148 C 249.646 421.710, 251.085 425.071, 262.043 444.133 C 271.161 459.994, 273.944 463.581, 278.718 465.623 C 284.225 467.980, 288.317 467.243, 301.635 461.500 C 308.649 458.475, 314.907 456, 315.541 456 C 316.175 456, 320.270 458.393, 324.640 461.319 C 329.010 464.244, 335.073 467.668, 338.112 468.928 L 343.639 471.218 345.295 485.630 C 346.990 500.377, 347.673 502.760, 351.375 506.845 C 355.803 511.731, 357.390 512, 381.802 512 C 403.906 512, 404.819 511.922, 408.010 509.750 C 414.686 505.206, 415.568 502.712, 418.019 481.444 L 419.177 471.388 425.959 468.228 C 429.689 466.491, 435.784 463.028, 439.503 460.534 C 443.222 458.041, 446.670 456, 447.166 456 C 447.661 456, 454.014 458.509, 461.283 461.576 C 472.526 466.319, 475.203 467.088, 479.208 466.727 C 486.827 466.039, 489.581 463.096, 500.868 443.583 C 506.440 433.948, 511.103 425.488, 511.230 424.783 C 511.356 424.077, 511.703 438.800, 512 457.500 L 512.540 491.500 512.670 450.500 C 512.742 427.950, 512.508 410.533, 512.150 411.795 C 511.522 414.013, 511.440 413.979, 509.719 410.795 C 508.669 408.853, 503.108 403.870, 496.177 398.661 L 484.416 389.822 485.303 381.911 C 485.819 377.302, 485.818 370.688, 485.300 366.066 L 484.411 358.133 496.545 349.086 C 516.362 334.310, 516.636 331.617, 501.058 304.697 C 488.973 283.814, 486.664 281.486, 478.078 281.526 C 473.538 281.547, 470.091 282.599, 459.556 287.174 L 446.612 292.796 442.194 289.422 C 439.764 287.567, 433.553 283.900, 428.393 281.274 C 422.928 278.494, 418.996 275.874, 418.978 275 C 418.961 274.175, 418.107 267.258, 417.079 259.630 C 415.117 245.061, 414.175 242.715, 408.618 238.562 C 406.037 236.634, 404.325 236.484, 382.179 236.253 C 365.944 236.083, 357.871 236.362, 356.500 237.139 M 171.107 239.143 C 144.437 241.931, 114.032 252.146, 92.024 265.713 C 46.992 293.473, 16.957 335.315, 3.884 388.500 C 1.790 397.018, 1.650 400.082, 1.275 445.671 C 0.893 492.080, 0.951 493.982, 2.852 497.671 C 5.473 502.759, 10.484 507.428, 16 509.921 C 20.461 511.938, 21.809 511.956, 171.367 511.978 L 322.233 512 321.563 509.750 C 321.194 508.512, 320.427 504.350, 319.858 500.500 C 318.225 489.439, 318.115 489.124, 315.400 487.702 C 313.074 486.483, 311.991 486.698, 304.163 489.927 C 296.026 493.283, 294.832 493.500, 284.500 493.500 C 274.184 493.500, 273.077 493.300, 266.698 490.278 C 255.984 485.203, 250.284 478.612, 237.916 456.997 C 225.435 435.184, 223.983 431.760, 223.282 422.500 C 222.057 406.308, 228.686 393.285, 244.250 381.308 C 252.146 375.232, 252.146 372.768, 244.250 366.692 C 228.686 354.715, 222.057 341.692, 223.282 325.500 C 223.983 316.240, 225.435 312.816, 237.916 291.003 C 249.959 269.955, 256.159 262.648, 265.666 258.295 L 271.424 255.659 266.962 253.725 C 238.088 241.207, 202.766 235.834, 171.107 239.143 M 374.650 336.049 C 363.073 337.992, 351.799 346.570, 346.431 357.522 C 343.755 362.979, 343.500 364.415, 343.500 374 C 343.500 383.585, 343.755 385.021, 346.431 390.478 C 358.505 415.110, 390.901 419.916, 409.493 399.834 C 416.741 392.005, 419.353 385.162, 419.353 374 C 419.353 362.838, 416.741 355.995, 409.493 348.166 C 403.235 341.406, 396.010 337.532, 386.910 336.055 C 383.385 335.483, 380.275 335.065, 380 335.125 C 379.725 335.186, 377.318 335.601, 374.650 336.049" stroke="none" fill="#040404" fill-rule="evenodd"/></svg>